<?xml version="1.0" encoding="utf-8"?>
<!-- Generator: Adobe Illustrator 15.0.0, SVG Export Plug-In . SVG Version: 6.00 Build 0)  -->
<!DOCTYPE svg PUBLIC "-//W3C//DTD SVG 1.1//EN" "http://www.w3.org/Graphics/SVG/1.1/DTD/svg11.dtd">
<svg version="1.1" id="Layer_1" xmlns="http://www.w3.org/2000/svg" xmlns:xlink="http://www.w3.org/1999/xlink" x="0px" y="0px"
	 width="71px" height="80px" viewBox="0 0 71 80" style="enable-background:new 0 0 71 80;" xml:space="preserve">
<style type="text/css">
<![CDATA[
	.st0{fill:#464646;}
	.st1{fill:#7A7A7A;}
	.st2{fill:#474747;}
	.st3{fill:#7B7B7B;}
	.st4{fill:#AAAAAA;}
	.st5{fill:#484848;}
	.st6{fill:#7C7C7C;}
	.st7{fill:#ABABAB;}
	.st8{fill:#494949;}
	.st9{fill:#7D7D7D;}
	.st10{fill:#ACACAC;}
	.st11{fill:#7E7E7E;}
	.st12{fill:#ADADAD;}
	.st13{fill:#101010;}
	.st14{fill:#7F7F7F;}
	.st15{fill:#AEAEAE;}
	.st16{fill:#111111;}
	.st17{fill:#AFAFAF;}
	.st18{fill:#121212;}
	.st19{fill:#E0E0E0;}
	.st20{fill:#131313;}
	.st21{fill:#E1E1E1;}
	.st22{fill:#141414;}
	.st23{fill:#E2E2E2;}
	.st24{fill:#151515;}
	.st25{fill:#E3E3E3;}
	.st26{fill:#161616;}
	.st27{fill:#E4E4E4;}
	.st28{fill:#4A4A4A;}
	.st29{fill:#171717;}
	.st30{fill:#E5E5E5;}
	.st31{fill:#4B4B4B;}
	.st32{fill:#181818;}
	.st33{fill:#E6E6E6;}
	.st34{fill:#4C4C4C;}
	.st35{fill:#191919;}
	.st36{fill:#E7E7E7;}
	.st37{fill:#4D4D4D;}
	.st38{fill:#E8E8E8;}
	.st39{fill:#4E4E4E;}
	.st40{fill:#E9E9E9;}
	.st41{fill:#4F4F4F;}
	.st42{fill:none;stroke:#FFFFFF;stroke-width:2;stroke-miterlimit:10;}
	.st43{fill:#808080;}
	.st44{fill:#818181;}
	.st45{fill:#B0B0B0;}
	.st46{fill:#828282;}
	.st47{fill:#B1B1B1;}
	.st48{fill:#838383;}
	.st49{fill:#B2B2B2;}
	.st50{fill:#848484;}
	.st51{fill:#B3B3B3;}
	.st52{fill:#858585;}
	.st53{fill:#B4B4B4;}
	.st54{fill:#1A1A1A;}
	.st55{fill:#868686;}
	.st56{fill:#B5B5B5;}
	.st57{fill:#1B1B1B;}
	.st58{fill:#878787;}
	.st59{fill:#B6B6B6;}
	.st60{fill:#1C1C1C;}
	.st61{fill:#EAEAEA;}
	.st62{fill:#888888;}
	.st63{fill:#B7B7B7;}
	.st64{fill:#1D1D1D;}
	.st65{fill:#EBEBEB;}
	.st66{fill:#898989;}
	.st67{fill:#B8B8B8;}
	.st68{fill:#1E1E1E;}
	.st69{fill:#ECECEC;}
	.st70{fill:#B9B9B9;}
	.st71{fill:#1F1F1F;}
	.st72{fill:#EDEDED;}
	.st73{fill:#505050;}
	.st74{fill:#EEEEEE;}
	.st75{fill:#515151;}
	.st76{fill:#EFEFEF;}
	.st77{fill:#525252;}
	.st78{fill:#535353;}
	.st79{fill:#545454;}
	.st80{fill:none;stroke:#FFFFFF;stroke-miterlimit:10;}
	.st81{fill:#555555;}
	.st82{fill:#565656;}
	.st83{fill:#8A8A8A;}
	.st84{fill:#575757;}
	.st85{fill:#8B8B8B;}
	.st86{fill:#BABABA;}
	.st87{fill:#585858;}
	.st88{fill:#8C8C8C;}
	.st89{fill:#BBBBBB;}
	.st90{fill:#595959;}
	.st91{fill:#8D8D8D;}
	.st92{fill:#BCBCBC;}
	.st93{fill:#8E8E8E;}
	.st94{fill:#BDBDBD;}
	.st95{fill:#202020;}
	.st96{fill:#8F8F8F;}
	.st97{fill:#BEBEBE;}
	.st98{fill:#212121;}
	.st99{fill:#BFBFBF;}
	.st100{fill:#222222;}
	.st101{fill:#F0F0F0;}
	.st102{fill:#232323;}
	.st103{fill:#F1F1F1;}
	.st104{fill:#242424;}
	.st105{fill:#F2F2F2;}
	.st106{fill:#252525;}
	.st107{fill:#F3F3F3;}
	.st108{fill:#262626;}
	.st109{fill:#F4F4F4;}
	.st110{fill:#5A5A5A;}
	.st111{fill:#272727;}
	.st112{fill:#F5F5F5;}
	.st113{fill:#5B5B5B;}
	.st114{fill:#282828;}
	.st115{fill:#F6F6F6;}
	.st116{fill:#5C5C5C;}
	.st117{fill:#292929;}
	.st118{fill:#F7F7F7;}
	.st119{fill:#5D5D5D;}
	.st120{fill:#F8F8F8;}
	.st121{fill:#5E5E5E;}
	.st122{fill:#F9F9F9;}
	.st123{fill:#5F5F5F;}
	.st124{fill:#909090;}
	.st125{fill:#919191;}
	.st126{fill:#C0C0C0;}
	.st127{fill:#929292;}
	.st128{fill:#C1C1C1;}
	.st129{fill:#939393;}
	.st130{fill:#C2C2C2;}
	.st131{fill:#949494;}
	.st132{fill:#C3C3C3;}
	.st133{fill:#959595;}
	.st134{fill:#C4C4C4;}
	.st135{fill:#2A2A2A;}
	.st136{fill:#969696;}
	.st137{fill:#C5C5C5;}
	.st138{fill:#2B2B2B;}
	.st139{fill:#979797;}
	.st140{fill:#C6C6C6;}
	.st141{fill:#2C2C2C;}
	.st142{fill:#FAFAFA;}
	.st143{fill:#989898;}
	.st144{fill:#C7C7C7;}
	.st145{fill:#2D2D2D;}
	.st146{fill:#FBFBFB;}
	.st147{fill:#999999;}
	.st148{fill:#C8C8C8;}
	.st149{fill:#2E2E2E;}
	.st150{fill:#FCFCFC;}
	.st151{fill:#C9C9C9;}
	.st152{fill:#2F2F2F;}
	.st153{fill:#FDFDFD;}
	.st154{opacity:0.2;}
	.st155{fill:#606060;}
	.st156{fill:#FEFEFE;}
	.st157{fill:#616161;}
	.st158{fill:#FFFFFF;}
	.st159{fill:#626262;}
	.st160{fill:#636363;}
	.st161{fill:#646464;}
	.st162{fill:#656565;}
	.st163{fill:#666666;}
	.st164{fill:#9A9A9A;}
	.st165{fill:#676767;}
	.st166{fill:#9B9B9B;}
	.st167{fill:#CACACA;}
	.st168{fill:#686868;}
	.st169{fill:#9C9C9C;}
	.st170{fill:#CBCBCB;}
	.st171{fill:#696969;}
	.st172{fill:#9D9D9D;}
	.st173{fill:#CCCCCC;}
	.st174{fill:#9E9E9E;}
	.st175{fill:#CDCDCD;}
	.st176{fill:#303030;}
	.st177{fill:#9F9F9F;}
	.st178{fill:#CECECE;}
	.st179{fill:#313131;}
	.st180{fill:#CFCFCF;}
	.st181{fill:#323232;}
	.st182{fill:#333333;}
	.st183{fill:#343434;}
	.st184{fill:#353535;}
	.st185{fill:#363636;}
	.st186{fill:#6A6A6A;}
	.st187{fill:#373737;}
	.st188{fill:#6B6B6B;}
	.st189{fill:#383838;}
	.st190{fill:#6C6C6C;}
	.st191{fill:#393939;}
	.st192{fill:#6D6D6D;}
	.st193{fill:#6E6E6E;}
	.st194{fill:#6F6F6F;}
	.st195{fill:#010101;}
	.st196{fill:#020202;}
	.st197{fill:#D0D0D0;}
	.st198{fill:#030303;}
	.st199{fill:#D1D1D1;}
	.st200{fill:#040404;}
	.st201{fill:#D2D2D2;}
	.st202{fill:#050505;}
	.st203{fill:#D3D3D3;}
	.st204{fill:#060606;}
	.st205{fill:#D4D4D4;}
	.st206{fill:#3A3A3A;}
	.st207{fill:#070707;}
	.st208{fill:#D5D5D5;}
	.st209{fill:#3B3B3B;}
	.st210{fill:#080808;}
	.st211{fill:#D6D6D6;}
	.st212{fill:#3C3C3C;}
	.st213{fill:#090909;}
	.st214{fill:#D7D7D7;}
	.st215{fill:#3D3D3D;}
	.st216{fill:#D8D8D8;}
	.st217{fill:#3E3E3E;}
	.st218{fill:#D9D9D9;}
	.st219{fill:#3F3F3F;}
	.st220{fill:#707070;}
	.st221{fill:#717171;}
	.st222{fill:#A0A0A0;}
	.st223{fill:#727272;}
	.st224{fill:#A1A1A1;}
	.st225{fill:#737373;}
	.st226{fill:#A2A2A2;}
	.st227{fill:#747474;}
	.st228{fill:#A3A3A3;}
	.st229{fill:#757575;}
	.st230{fill:#A4A4A4;}
	.st231{fill:#0A0A0A;}
	.st232{fill:#767676;}
	.st233{fill:#A5A5A5;}
	.st234{fill:#0B0B0B;}
	.st235{fill:#777777;}
	.st236{fill:#A6A6A6;}
	.st237{fill:#0C0C0C;}
	.st238{fill:#DADADA;}
	.st239{fill:#787878;}
	.st240{fill:#A7A7A7;}
	.st241{fill:#0D0D0D;}
	.st242{fill:#DBDBDB;}
	.st243{fill:#797979;}
	.st244{fill:#A8A8A8;}
	.st245{fill:#0E0E0E;}
	.st246{fill:#DCDCDC;}
	.st247{fill:#A9A9A9;}
	.st248{fill:#0F0F0F;}
	.st249{fill:#DDDDDD;}
	.st250{fill:#404040;}
	.st251{fill:#DEDEDE;}
	.st252{fill:#414141;}
	.st253{fill:#DFDFDF;}
	.st254{fill:#424242;}
	.st255{fill:#434343;}
	.st256{fill:#444444;}
	.st257{fill:#454545;}
]]>
</style>
<g class="st154">
	<path class="st158" d="M39,68.8L61,56V27L39,14.1V68.8z M5,59.5V40h6v16l22,12.8V3.6l34,19.9v35.9l-31,18L5,59.5z"/>
	<path class="st156" d="M39,68.8L61,56V27L39,14.1V68.8z M5,59.5V40h6v16l22,12.8V3.7l34,19.9v35.9l-31,18L5,59.5z"/>
	<path class="st153" d="M39,68.8L61,56V27L39,14.1V68.8z M5,59.5V40h6v16l22,12.8V3.7l34,19.9v35.9l-31,18L5,59.5z"/>
	<path class="st150" d="M39,68.8L61,56V27L39,14.1V68.8z M5,59.5V40h6v16l22,12.8V3.7l34,19.9v35.9l-31,18L5,59.5z"/>
	<path class="st146" d="M39,68.8L61,56V27L39,14V68.8z M5,59.5V40h6v16l22,12.8V3.7l34,19.8v35.9l-31,18L5,59.5z"/>
	<path class="st142" d="M39,68.9L61,56V26.9L39,14V68.9z M5,59.5V40h6v16l22,12.8V3.7l34,19.8v35.9l-31,18L5,59.5z"/>
	<path class="st122" d="M39,68.9L61,56V26.9L39,14V68.9z M5,59.5V40h6v16l22,12.8V3.7l34,19.8v35.9l-31,18L5,59.5z"/>
	<path class="st120" d="M39,68.9l22-12.8V26.9L39,14V68.9z M5,59.4V40h6v16.1l22,12.8V3.7l34,19.8v35.9l-31,18L5,59.4z"/>
	<path class="st118" d="M39,68.9l22-12.8V26.9L39,14V68.9z M5,59.4V40h6v16.1l22,12.8V3.8l34,19.8v35.9l-31,18L5,59.4z"/>
	<path class="st115" d="M39,68.9l22-12.8V26.9L39,14V68.9z M5,59.4V40h6v16.1l22,12.8V3.8l34,19.8v35.9l-31,18L5,59.4z"/>
	<path class="st112" d="M39,68.9l22-12.9V26.9L39,14V68.9z M5,59.4V40h6v16.1l22,12.9V3.8l34,19.8v35.9L36,77.4L5,59.4z"/>
	<path class="st109" d="M39,68.9l22-12.9V26.9L39,14V68.9z M5,59.4V40h6v16.1l22,12.9V3.8l34,19.8v35.8L36,77.4L5,59.4z"/>
	<path class="st107" d="M39,69l22-12.9V26.9l-22-13V69z M5,59.4V40h6v16.1L33,69V3.8l34,19.8v35.8L36,77.4L5,59.4z"/>
	<path class="st105" d="M39,69l22-12.9V26.9l-22-13V69z M5,59.4V40h6v16.1L33,69V3.8l34,19.8v35.8L36,77.4L5,59.4z"/>
	<path class="st103" d="M39,69l22-12.9V26.9l-22-13V69z M5,59.4V40h6v16.1L33,69V3.8l34,19.8v35.8L36,77.3L5,59.4z"/>
	<path class="st101" d="M39,69l22-12.9V26.9l-22-13V69z M5,59.4V40h6v16.1L33,69V3.9l34,19.7v35.8L36,77.3L5,59.4z"/>
	<path class="st76" d="M39,69l22-12.9V26.9l-22-13V69z M5,59.4V40h6v16.1L33,69V3.9l34,19.7v35.8L36,77.3L5,59.4z"/>
	<path class="st74" d="M39,69l22-12.9V26.9l-22-13V69z M5,59.4V40h6v16.1L33,69V3.9l34,19.7v35.8L36,77.3L5,59.4z"/>
	<path class="st72" d="M39,69l22-12.9V26.9l-22-13V69z M5,59.4V40h6v16.1L33,69V3.9l34,19.7v35.8L36,77.3L5,59.4z"/>
	<path class="st69" d="M39,69l22-12.9V26.9l-22-13V69z M5,59.4V40h6v16.1L33,69V3.9l34,19.7v35.8L36,77.3L5,59.4z"/>
	<path class="st65" d="M39,69.1l22-13V26.9L39,13.8V69.1z M5,59.4V40h6v16.1l22,13V3.9l34,19.7v35.8L36,77.3L5,59.4z"/>
	<path class="st61" d="M39,69.1l22-13V26.9L39,13.8V69.1z M5,59.4V40h6v16.1l22,13V3.9l34,19.7v35.8L36,77.3L5,59.4z"/>
	<path class="st40" d="M39,69.1l22-13V26.9L39,13.8V69.1z M5,59.4V40h6v16.1l22,13V3.9l34,19.7v35.8L36,77.3L5,59.4z"/>
	<path class="st38" d="M39,69.1l22-13V26.9L39,13.8V69.1z M5,59.4V40h6v16.1l22,13V4l34,19.7v35.7L36,77.3L5,59.4z"/>
	<path class="st36" d="M39,69.1l22-13V26.9L39,13.8V69.1z M5,59.4V40h6v16.1l22,13V4l34,19.7v35.7L36,77.3L5,59.4z"/>
	<path class="st33" d="M39,69.1l22-13V26.9L39,13.8V69.1z M5,59.4V40h6v16.1l22,13V4l34,19.7v35.7L36,77.2L5,59.4z"/>
	<path class="st30" d="M39,69.1l22-13V26.9L39,13.7V69.1z M5,59.4V40h6v16.1l22,13V4l34,19.6v35.7L36,77.2L5,59.4z"/>
	<path class="st27" d="M39,69.2l22-13V26.8L39,13.7V69.2z M5,59.4V40h6v16.1l22,13V4l34,19.6v35.7L36,77.2L5,59.4z"/>
	<path class="st25" d="M39,69.2l22-13V26.8L39,13.7V69.2z M5,59.4V40h6v16.1l22,13V4l34,19.6v35.7L36,77.2L5,59.4z"/>
	<path class="st23" d="M39,69.2l22-13V26.8L39,13.7V69.2z M5,59.3V40h6v16.2l22,13V4l34,19.6v35.7L36,77.2L5,59.3z"/>
	<path class="st21" d="M39,69.2l22-13V26.8L39,13.7V69.2z M5,59.3V40h6v16.2l22,13V4.1l34,19.6v35.7L36,77.2L5,59.3z"/>
	<path class="st19" d="M39,69.2l22-13V26.8L39,13.7V69.2z M5,59.3V40h6v16.2l22,13V4.1l34,19.6v35.7L36,77.2L5,59.3z"/>
	<path class="st253" d="M39,69.2l22-13.1V26.8L39,13.7V69.2z M5,59.3V40h6v16.2l22,13.1V4.1l34,19.6v35.7L36,77.2L5,59.3z"/>
	<path class="st251" d="M39,69.2l22-13.1V26.8L39,13.7V69.2z M5,59.3V40h6v16.2l22,13.1V4.1l34,19.6v35.7L36,77.2L5,59.3z"/>
	<path class="st249" d="M39,69.3l22-13.1V26.8L39,13.6V69.3z M5,59.3V40h6v16.2l22,13.1V4.1l34,19.6v35.6L36,77.2L5,59.3z"/>
	<path class="st246" d="M39,69.3l22-13.1V26.8L39,13.6V69.3z M5,59.3V40h6v16.2l22,13.1V4.1l34,19.6v35.6L36,77.2L5,59.3z"/>
	<path class="st242" d="M39,69.3l22-13.1V26.8L39,13.6V69.3z M5,59.3V40h6v16.2l22,13.1V4.1l34,19.6v35.6L36,77.1L5,59.3z"/>
	<path class="st238" d="M39,69.3l22-13.1V26.8L39,13.6V69.3z M5,59.3V40h6v16.2l22,13.1V4.2l34,19.5v35.6L36,77.1L5,59.3z"/>
	<path class="st218" d="M39,69.3l22-13.1V26.8L39,13.6V69.3z M5,59.3V40h6v16.2l22,13.1V4.2l34,19.5v35.6L36,77.1L5,59.3z"/>
	<path class="st216" d="M39,69.3l22-13.1V26.8L39,13.6V69.3z M5,59.3V40h6v16.2l22,13.1V4.2l34,19.5v35.6L36,77.1L5,59.3z"/>
	<path class="st214" d="M39,69.3l22-13.1V26.8L39,13.6V69.3z M5,59.3V40h6v16.2l22,13.1V4.2l34,19.5v35.6L36,77.1L5,59.3z"/>
	<path class="st211" d="M39,69.3l22-13.1V26.8L39,13.5V69.3z M5,59.3V40h6v16.2l22,13.1V4.2l34,19.5v35.6L36,77.1L5,59.3z"/>
	<path class="st208" d="M39,69.4l22-13.2V26.8L39,13.5V69.4z M5,59.3V40h6v16.2l22,13.2V4.2l34,19.5v35.6L36,77.1L5,59.3z"/>
	<path class="st205" d="M39,69.4l22-13.2V26.8L39,13.5V69.4z M5,59.3V40h6v16.2l22,13.2V4.2l34,19.5v35.6L36,77.1L5,59.3z"/>
	<path class="st203" d="M39,69.4l22-13.2V26.8L39,13.5V69.4z M5,59.3V40h6v16.2l22,13.2V4.2l34,19.5v35.6L36,77.1L5,59.3z"/>
	<path class="st201" d="M39,69.4l22-13.2V26.8L39,13.5V69.4z M5,59.3V40h6v16.2l22,13.2V4.3l34,19.5v35.5L36,77.1L5,59.3z"/>
	<path class="st199" d="M39,69.4l22-13.2V26.8L39,13.5V69.4z M5,59.3V40h6v16.2l22,13.2V4.3l34,19.5v35.5L36,77.1L5,59.3z"/>
	<path class="st197" d="M39,69.4l22-13.2V26.8L39,13.5V69.4z M5,59.3V40h6v16.2l22,13.2V4.3l34,19.5v35.5L36,77L5,59.3z"/>
	<path class="st180" d="M39,69.4l22-13.2V26.8L39,13.4V69.4z M5,59.3V40h6v16.2l22,13.2V4.3l34,19.4v35.5L36,77L5,59.3z"/>
	<path class="st178" d="M39,69.5l22-13.2V26.8L39,13.4V69.5z M5,59.3V40h6v16.2l22,13.2V4.3l34,19.4v35.5L36,77L5,59.3z"/>
	<path class="st175" d="M39,69.5l22-13.2V26.7L39,13.4V69.5z M5,59.3V40h6v16.2l22,13.2V4.3l34,19.4v35.5L36,77L5,59.3z"/>
	<path class="st173" d="M39,69.5l22-13.2V26.7L39,13.4V69.5z M5,59.2V40h6v16.3l22,13.2V4.3l34,19.4v35.5L36,77L5,59.2z"/>
	<path class="st170" d="M39,69.5l22-13.2V26.7L39,13.4V69.5z M5,59.2V40h6v16.3l22,13.2V4.4l34,19.4v35.5L36,77L5,59.2z"/>
	<path class="st167" d="M39,69.5l22-13.3V26.7L39,13.4V69.5z M5,59.2V40h6v16.3l22,13.3V4.4l34,19.4v35.5L36,77L5,59.2z"/>
	<path class="st151" d="M39,69.5l22-13.3V26.7L39,13.4V69.5z M5,59.2V40h6v16.3l22,13.3V4.4l34,19.4v35.5L36,77L5,59.2z"/>
	<path class="st148" d="M39,69.5l22-13.3V26.7L39,13.4V69.5z M5,59.2V40h6v16.3l22,13.3V4.4l34,19.4v35.5L36,77L5,59.2z"/>
	<path class="st144" d="M39,69.6l22-13.3V26.7L39,13.3V69.6z M5,59.2V40h6v16.3l22,13.3V4.4l34,19.4v35.4L36,77L5,59.2z"/>
	<path class="st140" d="M39,69.6l22-13.3V26.7L39,13.3V69.6z M5,59.2V40h6v16.3l22,13.3V4.4l34,19.4v35.4L36,77L5,59.2z"/>
	<path class="st137" d="M39,69.6l22-13.3V26.7L39,13.3V69.6z M5,59.2V40h6v16.3l22,13.3V4.4l34,19.4v35.4L36,76.9L5,59.2z"/>
	<path class="st134" d="M39,69.6l22-13.3V26.7L39,13.3V69.6z M5,59.2V40h6v16.3l22,13.3V4.5l34,19.3v35.4L36,76.9L5,59.2z"/>
	<path class="st132" d="M39,69.6l22-13.3V26.7L39,13.3V69.6z M5,59.2V40h6v16.3l22,13.3V4.5l34,19.3v35.4L36,76.9L5,59.2z"/>
	<path class="st130" d="M39,69.6l22-13.3V26.7L39,13.3V69.6z M5,59.2V40h6v16.3l22,13.3V4.5l34,19.3v35.4L36,76.9L5,59.2z"/>
	<path class="st128" d="M39,69.6l22-13.3V26.7L39,13.3V69.6z M5,59.2V40h6v16.3l22,13.3V4.5l34,19.3v35.4L36,76.9L5,59.2z"/>
	<path class="st126" d="M39,69.6l22-13.3V26.7L39,13.2V69.6z M5,59.2V40h6v16.3l22,13.3V4.5l34,19.3v35.4L36,76.9L5,59.2z"/>
	<path class="st99" d="M38,69.7l24-13.4V26.7L38,13.2V69.7z M6,59.2V41h4v15.3l24,13.4V4.5l32,19.3v35.4L36,76.9L6,59.2z"/>
	<path class="st97" d="M38,69.7l24-13.4V26.7L38,13.2V69.7z M6,59.2V41h4v15.3l24,13.4V4.5l32,19.3v35.4L36,76.9L6,59.2z"/>
	<path class="st94" d="M38,69.7l24-13.4V26.7L38,13.2V69.7z M6,59.2V41h4v15.3l24,13.4V4.5l32,19.3v35.4L36,76.9L6,59.2z"/>
	<path class="st92" d="M38,69.7l24-13.4V26.7L38,13.2V69.7z M6,59.2V41h4v15.3l24,13.4V4.6l32,19.3v35.3L36,76.9L6,59.2z"/>
	<path class="st89" d="M38,69.7l24-13.4V26.7L38,13.2V69.7z M6,59.2V41h4v15.3l24,13.4V4.6l32,19.3v35.3L36,76.9L6,59.2z"/>
	<path class="st86" d="M38,69.7l24-13.4V26.7L38,13.2V69.7z M6,59.2V41h4v15.3l24,13.4V4.6l32,19.3v35.3L36,76.8L6,59.2z"/>
	<path class="st70" d="M38,69.7l24-13.4V26.7L38,13.1V69.7z M6,59.2V41h4v15.3l24,13.4V4.6l32,19.2v35.3L36,76.8L6,59.2z"/>
	<path class="st67" d="M38,69.8l24-13.4V26.7L38,13.1V69.8z M6,59.2V41h4v15.3l24,13.4V4.6l32,19.2v35.3L36,76.8L6,59.2z"/>
	<path class="st63" d="M38,69.8l24-13.4V26.6L38,13.1V69.8z M6,59.2V41h4v15.3l24,13.4V4.6l32,19.2v35.3L36,76.8L6,59.2z"/>
	<path class="st59" d="M38,69.8l24-13.4V26.6L38,13.1V69.8z M6,59.1V41h4v15.4l24,13.4V4.6l32,19.2v35.3L36,76.8L6,59.1z"/>
	<path class="st56" d="M38,69.8l24-13.4V26.6L38,13.1V69.8z M6,59.1V41h4v15.4l24,13.4V4.7l32,19.2v35.3L36,76.8L6,59.1z"/>
	<path class="st53" d="M38,69.8l24-13.5V26.6L38,13.1V69.8z M6,59.1V41h4v15.4l24,13.5V4.7l32,19.2v35.3L36,76.8L6,59.1z"/>
	<path class="st51" d="M38,69.8l24-13.5V26.6L38,13.1V69.8z M6,59.1V41h4v15.4l24,13.5V4.7l32,19.2v35.3L36,76.8L6,59.1z"/>
	<path class="st49" d="M38,69.8l24-13.5V26.6L38,13.1V69.8z M6,59.1V41h4v15.4l24,13.5V4.7l32,19.2v35.3L36,76.8L6,59.1z"/>
	<path class="st47" d="M38,69.9l24-13.5V26.6L38,13V69.9z M6,59.1V41h4v15.4l24,13.5V4.7l32,19.2v35.2L36,76.8L6,59.1z"/>
	<path class="st45" d="M38,69.9l24-13.5V26.6L38,13V69.9z M6,59.1V41h4v15.4l24,13.5V4.7l32,19.2v35.2L36,76.8L6,59.1z"/>
	<path class="st17" d="M38,69.9l24-13.5V26.6L38,13V69.9z M6,59.1V41h4v15.4l24,13.5V4.7l32,19.1v35.2L36,76.7L6,59.1z"/>
	<path class="st15" d="M38,69.9l24-13.5V26.6L38,13V69.9z M6,59.1V41h4v15.4l24,13.5V4.8l32,19.1v35.2L36,76.7L6,59.1z"/>
	<path class="st12" d="M38,69.9l24-13.5V26.6L38,13V69.9z M6,59.1V41h4v15.4l24,13.5V4.8l32,19.1v35.2L36,76.7L6,59.1z"/>
	<path class="st10" d="M38,69.9l24-13.5V26.6L38,13V69.9z M6,59.1V41h4v15.4l24,13.5V4.8l32,19.1v35.2L36,76.7L6,59.1z"/>
	<path class="st7" d="M38,69.9l24-13.5V26.6L38,13V69.9z M6,59.1V41h4v15.4l24,13.5V4.8l32,19.1v35.2L36,76.7L6,59.1z"/>
	<path class="st4" d="M38,69.9l24-13.5V26.6L38,12.9V69.9z M6,59.1V41h4v15.4l24,13.5V4.8l32,19.1v35.2L36,76.7L6,59.1z"/>
	<path class="st247" d="M38,70l24-13.6V26.6L38,12.9V70z M6,59.1V41h4v15.4L34,70V4.8l32,19.1v35.2L36,76.7L6,59.1z"/>
	<path class="st244" d="M38,70l24-13.6V26.6L38,12.9V70z M6,59.1V41h4v15.4L34,70V4.8l32,19.1v35.2L36,76.7L6,59.1z"/>
	<path class="st240" d="M38,70l24-13.6V26.6L38,12.9V70z M6,59.1V41h4v15.4L34,70V4.8l32,19.1v35.2L36,76.7L6,59.1z"/>
	<path class="st236" d="M38,70l24-13.6V26.6L38,12.9V70z M6,59.1V41h4v15.4L34,70V4.9l32,19.1v35.1L36,76.7L6,59.1z"/>
	<path class="st233" d="M38,70l24-13.6V26.6L38,12.9V70z M6,59.1V41h4v15.4L34,70V4.9l32,19.1v35.1L36,76.7L6,59.1z"/>
	<path class="st230" d="M38,70l24-13.6V26.6L38,12.9V70z M6,59.1V41h4v15.4L34,70V4.9l32,19v35.1L36,76.6L6,59.1z"/>
	<path class="st228" d="M38,70l24-13.6V26.6L38,12.8V70z M6,59.1V41h4v15.4L34,70V4.9l32,19v35.1L36,76.6L6,59.1z"/>
	<path class="st226" d="M38,70.1l24-13.6V26.6L38,12.8V70.1z M6,59.1V41h4v15.4l24,13.6V4.9l32,19v35.1L36,76.6L6,59.1z"/>
	<path class="st224" d="M38,70.1l24-13.6V26.5L38,12.8V70.1z M6,59.1V41h4v15.4l24,13.6V4.9l32,19v35.1L36,76.6L6,59.1z"/>
	<path class="st222" d="M38,70.1l24-13.6V26.5L38,12.8V70.1z M6,59V41h4v15.5l24,13.6V4.9l32,19V59L36,76.6L6,59z"/>
	<path class="st177" d="M38,70.1l24-13.6V26.5L38,12.8V70.1z M6,59V41h4v15.5l24,13.6V5l32,19V59L36,76.6L6,59z"/>
	<path class="st174" d="M38,70.1l24-13.7V26.5L38,12.8V70.1z M6,59V41h4v15.5l24,13.7V5l32,19V59L36,76.6L6,59z"/>
	<path class="st172" d="M38,70.1l24-13.7V26.5L38,12.8V70.1z M6,59V41h4v15.5l24,13.7V5l32,19V59L36,76.6L6,59z"/>
	<path class="st169" d="M38,70.1l24-13.7V26.5L38,12.8V70.1z M6,59V41h4v15.5l24,13.7V5l32,19V59L36,76.6L6,59z"/>
	<path class="st166" d="M38,70.2l24-13.7v-30L38,12.7V70.2z M6,59V41h4v15.5l24,13.7V5l32,19v35L36,76.6L6,59z"/>
	<path class="st164" d="M38,70.2l24-13.7v-30L38,12.7V70.2z M6,59V41h4v15.5l24,13.7V5l32,19v35L36,76.6L6,59z"/>
	<path class="st147" d="M38,70.2l24-13.7v-30L38,12.7V70.2z M6,59V41h4v15.5l24,13.7V5L66,24v35L36,76.5L6,59z"/>
	<path class="st143" d="M38,70.2l24-13.7v-30L38,12.7V70.2z M6,59V41h4v15.5l24,13.7V5.1L66,24v35L36,76.5L6,59z"/>
	<path class="st139" d="M38,70.2l24-13.7v-30L38,12.7V70.2z M6,59V41h4v15.5l24,13.7V5.1L66,24v35L36,76.5L6,59z"/>
	<path class="st136" d="M38,70.2l24-13.7v-30L38,12.7V70.2z M6,59V41h4v15.5l24,13.7V5.1L66,24v35L36,76.5L6,59z"/>
	<path class="st133" d="M38,70.2l24-13.7v-30L38,12.7V70.2z M6,59V41h4v15.5l24,13.7V5.1L66,24v35L36,76.5L6,59z"/>
	<path class="st131" d="M38,70.2l24-13.7v-30L38,12.6V70.2z M6,59V41h4v15.5l24,13.7V5.1L66,24v35L36,76.5L6,59z"/>
	<path class="st129" d="M38,70.3l24-13.8v-30L38,12.6V70.3z M6,59V41h4v15.5l24,13.8V5.1L66,24v35L36,76.5L6,59z"/>
	<path class="st127" d="M38,70.3l24-13.8v-30L38,12.6V70.3z M6,59V41h4v15.5l24,13.8V5.1L66,24v35L36,76.5L6,59z"/>
	<path class="st125" d="M38,70.3l24-13.8v-30L38,12.6V70.3z M6,59V41h4v15.5l24,13.8V5.1L66,24v35L36,76.5L6,59z"/>
	<path class="st124" d="M38,70.3l24-13.8V26.5L38,12.6V70.3z M6,59V41h4v15.5l24,13.8V5.2L66,24V59L36,76.5L6,59z"/>
	<path class="st96" d="M38,70.3l24-13.8V26.5L38,12.6V70.3z M6,59V41h4v15.5l24,13.8V5.2L66,24V59L36,76.5L6,59z"/>
	<path class="st93" d="M38,70.3l24-13.8V26.5L38,12.6V70.3z M6,59V41h4v15.5l24,13.8V5.2L66,24V59L36,76.4L6,59z"/>
	<path class="st91" d="M38,70.3l24-13.8V26.5L38,12.5V70.3z M6,59V41h4v15.5l24,13.8V5.2L66,24V59L36,76.4L6,59z"/>
	<path class="st88" d="M38,70.4l24-13.8V26.5L38,12.5V70.4z M6,59V41h4v15.5l24,13.8V5.2L66,24V59L36,76.4L6,59z"/>
	<path class="st85" d="M38,70.4l24-13.8V26.4L38,12.5V70.4z M6,59V41h4v15.5l24,13.8V5.2l32,18.8V59L36,76.4L6,59z"/>
	<path class="st83" d="M38,70.4l24-13.8V26.4L38,12.5V70.4z M6,58.9V41h4v15.6l24,13.8V5.2l32,18.8v34.9L36,76.4L6,58.9z"/>
	<path class="st66" d="M38,70.4l24-13.8V26.4L38,12.5V70.4z M6,58.9V41h4v15.6l24,13.8V5.3l32,18.8v34.9L36,76.4L6,58.9z"/>
	<path class="st62" d="M38,70.4l24-13.9V26.4l-24-14V70.4z M6,58.9V41h4v15.6l24,13.9V5.3l32,18.8v34.9L36,76.4L6,58.9z"/>
	<path class="st58" d="M38,70.4l24-13.9V26.4l-24-14V70.4z M6,58.9V41h4v15.6l24,13.9V5.3l32,18.8v34.9L36,76.4L6,58.9z"/>
	<path class="st55" d="M38,70.4l24-13.9V26.4l-24-14V70.4z M6,58.9V41h4v15.6l24,13.9V5.3l32,18.8v34.9L36,76.4L6,58.9z"/>
	<path class="st52" d="M38,70.5l24-13.9V26.4l-24-14V70.5z M6,58.9V41h4v15.6l24,13.9V5.3l32,18.8v34.8L36,76.4L6,58.9z"/>
	<path class="st50" d="M38,70.5l24-13.9V26.4l-24-14V70.5z M6,58.9V41h4v15.6l24,13.9V5.3l32,18.8v34.8L36,76.4L6,58.9z"/>
	<path class="st48" d="M38,70.5l24-13.9V26.4l-24-14V70.5z M6,58.9V41h4v15.6l24,13.9V5.3l32,18.7v34.8L36,76.3L6,58.9z"/>
	<path class="st46" d="M38,70.5l24-13.9V26.4l-24-14V70.5z M6,58.9V41h4v15.6l24,13.9V5.4l32,18.7v34.8L36,76.3L6,58.9z"/>
	<path class="st44" d="M38,70.5l24-13.9V26.4l-24-14V70.5z M6,58.9V41h4v15.6l24,13.9V5.4l32,18.7v34.8L36,76.3L6,58.9z"/>
	<path class="st43" d="M38,70.5l24-13.9V26.4l-24-14V70.5z M6,58.9V41h4v15.6l24,13.9V5.4l32,18.7v34.8L36,76.3L6,58.9z"/>
	<path class="st14" d="M38,70.5l24-13.9V26.4l-24-14V70.5z M6,58.9V41h4v15.6l24,13.9V5.4l32,18.7v34.8L36,76.3L6,58.9z"/>
	<path class="st11" d="M38,70.5l24-13.9V26.4l-24-14V70.5z M6,58.9V41h4v15.6l24,13.9V5.4l32,18.7v34.8L36,76.3L6,58.9z"/>
	<path class="st9" d="M38,70.6l24-14V26.4L38,12.3V70.6z M6,58.9V41h4v15.6l24,14V5.4l32,18.7v34.8L36,76.3L6,58.9z"/>
	<path class="st6" d="M38,70.6l24-14V26.4L38,12.3V70.6z M6,58.9V41h4v15.6l24,14V5.4l32,18.7v34.8L36,76.3L6,58.9z"/>
	<path class="st3" d="M38,70.6l24-14V26.4L38,12.3V70.6z M6,58.9V41h4v15.6l24,14V5.5l32,18.7v34.8L36,76.3L6,58.9z"/>
	<path class="st1" d="M38,70.6l24-14V26.4L38,12.3V70.6z M6,58.9V41h4v15.6l24,14V5.5l32,18.7v34.7L36,76.3L6,58.9z"/>
	<path class="st243" d="M38,70.6l24-14V26.4L38,12.3V70.6z M6,58.9V41h4v15.6l24,14V5.5l32,18.7v34.7L36,76.3L6,58.9z"/>
	<path class="st239" d="M38,70.6l24-14V26.4L38,12.3V70.6z M6,58.9V41h4v15.6l24,14V5.5l32,18.6v34.7L36,76.2L6,58.9z"/>
	<path class="st235" d="M38,70.6l24-14V26.4L38,12.2V70.6z M6,58.9V41h4v15.6l24,14V5.5l32,18.6v34.7L36,76.2L6,58.9z"/>
	<path class="st232" d="M38,70.7l24-14V26.4L38,12.2V70.7z M6,58.9V41h4v15.6l24,14V5.5l32,18.6v34.7L36,76.2L6,58.9z"/>
	<path class="st229" d="M38,70.7l24-14V26.4L38,12.2V70.7z M6,58.9V41h4v15.6l24,14V5.5l32,18.6v34.7L36,76.2L6,58.9z"/>
	<path class="st227" d="M38,70.7l24-14V26.3L38,12.2V70.7z M6,58.8V41h4v15.7l24,14V5.5l32,18.6v34.7L36,76.2L6,58.8z"/>
	<path class="st225" d="M38,70.7l24-14V26.3L38,12.2V70.7z M6,58.8V41h4v15.7l24,14V5.6l32,18.6v34.7L36,76.2L6,58.8z"/>
	<path class="st223" d="M38,70.7l24-14.1V26.3L38,12.2V70.7z M6,58.8V41h4v15.7l24,14.1V5.6l32,18.6v34.7L36,76.2L6,58.8z"/>
	<path class="st221" d="M38,70.7l24-14.1V26.3L38,12.2V70.7z M6,58.8V41h4v15.7l24,14.1V5.6l32,18.6v34.7L36,76.2L6,58.8z"/>
	<path class="st220" d="M38,70.7l24-14.1V26.3L38,12.1V70.7z M6,58.8V41h4v15.7l24,14.1V5.6l32,18.6v34.7L36,76.2L6,58.8z"/>
	<path class="st194" d="M38,70.8l24-14.1V26.3L38,12.1V70.8z M6,58.8V41h4v15.7l24,14.1V5.6l32,18.6v34.7L36,76.2L6,58.8z"/>
	<path class="st193" d="M38,70.8l24-14.1V26.3L38,12.1V70.8z M6,58.8V41h4v15.7l24,14.1V5.6l32,18.6v34.6L36,76.2L6,58.8z"/>
	<path class="st192" d="M38,70.8l24-14.1V26.3L38,12.1V70.8z M6,58.8V41h4v15.7l24,14.1V5.6l32,18.5v34.6L36,76.1L6,58.8z"/>
	<path class="st190" d="M38,70.8l24-14.1V26.3L38,12.1V70.8z M6,58.8V41h4v15.7l24,14.1V5.7l32,18.5v34.6L36,76.1L6,58.8z"/>
	<path class="st188" d="M38,70.8l24-14.1V26.3L38,12.1V70.8z M6,58.8V41h4v15.7l24,14.1V5.7l32,18.5v34.6L36,76.1L6,58.8z"/>
	<path class="st186" d="M38,70.8l24-14.1V26.3L38,12.1V70.8z M6,58.8V41h4v15.7l24,14.1V5.7l32,18.5v34.6L36,76.1L6,58.8z"/>
	<path class="st171" d="M38,70.8l24-14.1V26.3L38,12.1V70.8z M6,58.8V41h4v15.7l24,14.1V5.7l32,18.5v34.6L36,76.1L6,58.8z"/>
	<path class="st168" d="M38,70.8l24-14.1V26.3L38,12V70.8z M6,58.8V41h4v15.7l24,14.1V5.7l32,18.5v34.6L36,76.1L6,58.8z"/>
	<path class="st165" d="M38,70.9l24-14.2V26.3L38,12V70.9z M6,58.8V41h4v15.7l24,14.2V5.7l32,18.5v34.6L36,76.1L6,58.8z"/>
	<path class="st163" d="M38,70.9l24-14.2V26.3L38,12V70.9z M6,58.8V41h4v15.7l24,14.2V5.7l32,18.5v34.6L36,76.1L6,58.8z"/>
	<path class="st162" d="M38,70.9l24-14.2V26.3L38,12V70.9z M6,58.8V41h4v15.7l24,14.2V5.8l32,18.5v34.6L36,76.1L6,58.8z"/>
	<path class="st161" d="M38,70.9l24-14.2V26.3L38,12V70.9z M6,58.8V41h4v15.7l24,14.2V5.8l32,18.5v34.6L36,76.1L6,58.8z"/>
	<path class="st160" d="M38,70.9l24-14.2V26.3L38,12V70.9z M6,58.8V41h4v15.7l24,14.2V5.8l32,18.5v34.5L36,76.1L6,58.8z"/>
	<path class="st159" d="M38,70.9l24-14.2V26.3L38,12V70.9z M6,58.8V41h4v15.7l24,14.2V5.8l32,18.4v34.5L36,76L6,58.8z"/>
	<path class="st157" d="M38,70.9l24-14.2V26.3L38,11.9V70.9z M6,58.8V41h4v15.7l24,14.2V5.8l32,18.4v34.5L36,76L6,58.8z"/>
	<path class="st155" d="M38,71l24-14.2V26.3L38,11.9V71z M6,58.8V41h4v15.7L34,71V5.8l32,18.4v34.5L36,76L6,58.8z"/>
	<path class="st123" d="M38,71l24-14.2V26.3L38,11.9V71z M6,58.8V41h4v15.7L34,71V5.8l32,18.4v34.5L36,76L6,58.8z"/>
	<path class="st121" d="M38,71l24-14.2V26.2L38,11.9V71z M6,58.8V41h4v15.7L34,71V5.8l32,18.4v34.5L36,76L6,58.8z"/>
	<path class="st119" d="M38,71l24-14.2V26.2L38,11.9V71z M6,58.7V41h4v15.8L34,71V5.9l32,18.4v34.5L36,76L6,58.7z"/>
	<path class="st116" d="M38,71l24-14.3V26.2L38,11.9V71z M6,58.7V41h4v15.8L34,71V5.9l32,18.4v34.5L36,76L6,58.7z"/>
	<path class="st113" d="M38,71l24-14.3V26.2L38,11.9V71z M6,58.7V41h4v15.8L34,71V5.9l32,18.4v34.5L36,76L6,58.7z"/>
	<path class="st110" d="M38,71l24-14.3V26.2L38,11.8V71z M6,58.7V41h4v15.8L34,71V5.9l32,18.4v34.5L36,76L6,58.7z"/>
	<path class="st90" d="M38,71.1l24-14.3V26.2L38,11.8V71.1z M6,58.7V41h4v15.8l24,14.3V5.9l32,18.4v34.5L36,76L6,58.7z"/>
	<path class="st87" d="M38,71.1l24-14.3V26.2L38,11.8V71.1z M6,58.7V41h4v15.8l24,14.3V5.9l32,18.4v34.4L36,76L6,58.7z"/>
	<path class="st84" d="M38,71.1l24-14.3V26.2L38,11.8V71.1z M6,58.7V41h4v15.8l24,14.3V5.9l32,18.3v34.4L36,75.9L6,58.7z"/>
	<path class="st82" d="M38,71.1l24-14.3V26.2L38,11.8V71.1z M6,58.7V41h4v15.8l24,14.3V6l32,18.3v34.4L36,75.9L6,58.7z"/>
	<path class="st81" d="M38,71.1l24-14.3V26.2L38,11.8V71.1z M6,58.7V41h4v15.8l24,14.3V6l32,18.3v34.4L36,75.9L6,58.7z"/>
	<path class="st79" d="M38,71.1l24-14.3V26.2L38,11.8V71.1z M6,58.7V41h4v15.8l24,14.3V6l32,18.3v34.4L36,75.9L6,58.7z"/>
	<path class="st78" d="M38,71.1l24-14.3V26.2L38,11.8V71.1z M6,58.7V41h4v15.8l24,14.3V6l32,18.3v34.4L36,75.9L6,58.7z"/>
	<path class="st77" d="M38,71.1l24-14.3V26.2L38,11.7V71.1z M6,58.7V41h4v15.8l24,14.3V6l32,18.3v34.4L36,75.9L6,58.7z"/>
	<path class="st75" d="M38,71.2l24-14.4V26.2L38,11.7V71.2z M6,58.7V41h4v15.8l24,14.4V6l32,18.3v34.4L36,75.9L6,58.7z"/>
	<path class="st73" d="M38,71.2l24-14.4V26.2L38,11.7V71.2z M6,58.7V41h4v15.8l24,14.4V6l32,18.3v34.4L36,75.9L6,58.7z"/>
	<path class="st41" d="M38,71.2l24-14.4V26.2L38,11.7V71.2z M6,58.7V41h4v15.8l24,14.4V6.1l32,18.3v34.4L36,75.9L6,58.7z"/>
	<path class="st39" d="M38,71.2l24-14.4V26.2L38,11.7V71.2z M6,58.7V41h4v15.8l24,14.4V6.1l32,18.3v34.4L36,75.9L6,58.7z"/>
	<path class="st37" d="M38,71.2l24-14.4V26.2L38,11.7V71.2z M6,58.7V41h4v15.8l24,14.4V6.1l32,18.3v34.3L36,75.9L6,58.7z"/>
	<path class="st34" d="M38,71.2l24-14.4V26.2L38,11.7V71.2z M6,58.7V41h4v15.8l24,14.4V6.1l32,18.2v34.3L36,75.8L6,58.7z"/>
	<path class="st31" d="M38,71.2l24-14.4V26.2L38,11.6V71.2z M6,58.7V41h4v15.8l24,14.4V6.1l32,18.2v34.3L36,75.8L6,58.7z"/>
	<path class="st28" d="M38,71.3l24-14.4V26.2L38,11.6V71.3z M6,58.7V41h4v15.8l24,14.4V6.1l32,18.2v34.3L36,75.8L6,58.7z"/>
	<path class="st8" d="M38,71.3l24-14.4V26.2L38,11.6V71.3z M6,58.7V41h4v15.8l24,14.4V6.1l32,18.2v34.3L36,75.8L6,58.7z"/>
	<path class="st5" d="M38,71.3l24-14.4V26.1L38,11.6V71.3z M6,58.7V41h4v15.8l24,14.4V6.1l32,18.2v34.3L36,75.8L6,58.7z"/>
	<path class="st2" d="M38,71.3l24-14.4V26.1L38,11.6V71.3z M6,58.6V41h4v15.9l24,14.4V6.2l32,18.2v34.3L36,75.8L6,58.6z"/>
	<path class="st0" d="M38,71.3l24-14.5V26.1L38,11.6V71.3z M6,58.6V41h4v15.9l24,14.5V6.2l32,18.2v34.3L36,75.8L6,58.6z"/>
	<path class="st257" d="M38,71.3l24-14.5V26.1L38,11.6V71.3z M6,58.6V41h4v15.9l24,14.5V6.2l32,18.2v34.3L36,75.8L6,58.6z"/>
	<path class="st256" d="M38,71.3l24-14.5V26.1L38,11.5V71.3z M6,58.6V41h4v15.9l24,14.5V6.2l32,18.2v34.3L36,75.8L6,58.6z"/>
	<path class="st255" d="M38,71.4l24-14.5V26.1L38,11.5V71.4z M6,58.6V41h4v15.9l24,14.5V6.2l32,18.2v34.3L36,75.8L6,58.6z"/>
	<path class="st254" d="M38,71.4l24-14.5V26.1L38,11.5V71.4z M6,58.6V41h4v15.9l24,14.5V6.2l32,18.1v34.2L36,75.8L6,58.6z"/>
	<path class="st252" d="M38,71.4l24-14.5V26.1L38,11.5V71.4z M6,58.6V41h4v15.9l24,14.5V6.2l32,18.1v34.2L36,75.7L6,58.6z"/>
	<path class="st250" d="M38,71.4l24-14.5V26.1L38,11.5V71.4z M6,58.6V41h4v15.9l24,14.5V6.3l32,18.1v34.2L36,75.7L6,58.6z"/>
	<path class="st219" d="M37,71.4l26-14.5V26.1L37,11.5V71.4z M7,58.6V42h2v14.9l26,14.5V6.3l30,18.1v34.2L36,75.7L7,58.6z"/>
	<path class="st217" d="M37,71.4l26-14.5V26.1L37,11.5V71.4z M7,58.6V42h2v14.9l26,14.5V6.3l30,18.1v34.2L36,75.7L7,58.6z"/>
	<path class="st215" d="M37,71.4l26-14.5V26.1L37,11.5V71.4z M7,58.6V42h2v14.9l26,14.5V6.3l30,18.1v34.2L36,75.7L7,58.6z"/>
	<path class="st212" d="M37,71.4l26-14.5V26.1L37,11.4V71.4z M7,58.6V42h2v14.9l26,14.5V6.3l30,18.1v34.2L36,75.7L7,58.6z"/>
	<path class="st209" d="M37,71.5l26-14.6V26.1L37,11.4V71.5z M7,58.6V42h2v14.9l26,14.6V6.3l30,18.1v34.2L36,75.7L7,58.6z"/>
	<path class="st206" d="M37,71.5l26-14.6V26.1L37,11.4V71.5z M7,58.6V42h2v14.9l26,14.6V6.3l30,18.1v34.2L36,75.7L7,58.6z"/>
	<path class="st191" d="M37,71.5l26-14.6V26.1L37,11.4V71.5z M7,58.6V42h2v14.9l26,14.6V6.4l30,18.1v34.2L36,75.7L7,58.6z"/>
	<path class="st189" d="M37,71.5l26-14.6V26.1L37,11.4V71.5z M7,58.6V42h2v14.9l26,14.6V6.4l30,18.1v34.2L36,75.7L7,58.6z"/>
	<path class="st187" d="M37,71.5l26-14.6V26.1L37,11.4V71.5z M7,58.6V42h2v14.9l26,14.6V6.4l30,18v34.1L36,75.7L7,58.6z"/>
	<path class="st185" d="M37,71.5l26-14.6V26.1L37,11.4V71.5z M7,58.6V42h2v14.9l26,14.6V6.4l30,18v34.1L36,75.6L7,58.6z"/>
	<path class="st184" d="M37,71.5l26-14.6V26.1L37,11.3V71.5z M7,58.6V42h2v14.9l26,14.6V6.4l30,18v34.1L36,75.6L7,58.6z"/>
	<path class="st183" d="M37,71.6l26-14.6V26.1L37,11.3V71.6z M7,58.6V42h2v14.9l26,14.6V6.4l30,18v34.1L36,75.6L7,58.6z"/>
	<path class="st182" d="M37,71.6l26-14.6V26.1L37,11.3V71.6z M7,58.6V42h2v14.9l26,14.6V6.4l30,18v34.1L36,75.6L7,58.6z"/>
	<path class="st181" d="M37,71.6l26-14.6V26L37,11.3V71.6z M7,58.6V42h2v14.9l26,14.6V6.4l30,18v34.1L36,75.6L7,58.6z"/>
	<path class="st179" d="M37,71.6L63,57V26L37,11.3V71.6z M7,58.5V42h2v15l26,14.6V6.5l30,18v34.1L36,75.6L7,58.5z"/>
	<path class="st176" d="M37,71.6L63,57V26L37,11.3V71.6z M7,58.5V42h2v15l26,14.7V6.5l30,18v34.1l-29,17L7,58.5z"/>
	<path class="st152" d="M37,71.6L63,57V26L37,11.3V71.6z M7,58.5V42h2v15l26,14.7V6.5l30,18v34.1l-29,17L7,58.5z"/>
	<path class="st149" d="M37,71.6L63,57V26L37,11.2V71.6z M7,58.5V42h2v15l26,14.7V6.5l30,18v34.1l-29,17L7,58.5z"/>
	<path class="st145" d="M37,71.7L63,57V26L37,11.2V71.7z M7,58.5V42h2v15l26,14.7V6.5l30,18v34.1l-29,17L7,58.5z"/>
	<path class="st141" d="M37,71.7L63,57V26L37,11.2V71.7z M7,58.5V42h2v15l26,14.7V6.5l30,17.9v34l-29,17L7,58.5z"/>
	<path class="st138" d="M37,71.7L63,57V26L37,11.2V71.7z M7,58.5V42h2v15l26,14.7V6.5l30,17.9v34l-29,17L7,58.5z"/>
	<path class="st135" d="M37,71.7L63,57V26L37,11.2V71.7z M7,58.5V42h2v15l26,14.7V6.6l30,17.9v34l-29,17L7,58.5z"/>
	<path class="st117" d="M37,71.7L63,57V26L37,11.2V71.7z M7,58.5V42h2v15l26,14.7V6.6l30,17.9v34l-29,17L7,58.5z"/>
	<path class="st114" d="M37,71.7L63,57V26L37,11.2V71.7z M7,58.5V42h2v15l26,14.7V6.6l30,17.9v34l-29,17L7,58.5z"/>
	<path class="st111" d="M37,71.7L63,57V26L37,11.2V71.7z M7,58.5V42h2v15l26,14.7V6.6l30,17.9v34l-29,17L7,58.5z"/>
	<path class="st108" d="M37,71.7L63,57V26L37,11.1V71.7z M7,58.5V42h2v15l26,14.7V6.6l30,17.9v34l-29,17L7,58.5z"/>
	<path class="st106" d="M37,71.8L63,57V26L37,11.1V71.8z M7,58.5V42h2v15l26,14.8V6.6l30,17.9v34l-29,17L7,58.5z"/>
	<path class="st104" d="M37,71.8L63,57V26L37,11.1V71.8z M7,58.5V42h2v15l26,14.8V6.6l30,17.9v34l-29,17L7,58.5z"/>
	<path class="st102" d="M37,71.8L63,57V26L37,11.1V71.8z M7,58.5V42h2v15l26,14.8V6.7l30,17.9v34l-29,17L7,58.5z"/>
	<path class="st100" d="M37,71.8L63,57V26L37,11.1V71.8z M7,58.5V42h2v15l26,14.8V6.7l30,17.9v34l-29,17L7,58.5z"/>
	<path class="st98" d="M37,71.8L63,57V26L37,11.1V71.8z M7,58.5V42h2v15l26,14.8V6.7l30,17.8v33.9l-29,17L7,58.5z"/>
	<path class="st95" d="M37,71.8L63,57V26L37,11.1V71.8z M7,58.5V42h2v15l26,14.8V6.7l30,17.8v33.9l-29,17L7,58.5z"/>
	<path class="st71" d="M37,71.8L63,57V26L37,11V71.8z M7,58.5V42h2v15l26,14.8V6.7l30,17.8v33.9l-29,17L7,58.5z"/>
	<path class="st68" d="M37,71.9L63,57V26L37,11V71.9z M7,58.5V42h2v15l26,14.8V6.7l30,17.8v33.9l-29,17L7,58.5z"/>
	<path class="st64" d="M37,71.9L63,57V26L37,11V71.9z M7,58.5V42h2v15l26,14.8V6.7l30,17.8v33.9l-29,17L7,58.5z"/>
	<path class="st60" d="M37,71.9L63,57V25.9L37,11V71.9z M7,58.5V42h2v15l26,14.8V6.7l30,17.8v33.9l-29,17L7,58.5z"/>
	<path class="st57" d="M37,71.9l26-14.8V25.9L37,11V71.9z M7,58.4V42h2v15.1l26,14.8V6.8l30,17.8v33.9l-29,17L7,58.4z"/>
	<path class="st54" d="M37,71.9l26-14.9V25.9L37,11V71.9z M7,58.4V42h2v15.1l26,14.9V6.8l30,17.8v33.9L36,75.4L7,58.4z"/>
	<path class="st35" d="M37,71.9l26-14.9V25.9L37,11V71.9z M7,58.4V42h2v15.1l26,14.9V6.8l30,17.8v33.9L36,75.4L7,58.4z"/>
	<path class="st32" d="M37,71.9l26-14.9V25.9l-26-15V71.9z M7,58.4V42h2v15.1l26,14.9V6.8l30,17.8v33.9L36,75.4L7,58.4z"/>
	<path class="st29" d="M37,72l26-14.9V25.9l-26-15V72z M7,58.4V42h2v15.1L35,72V6.8l30,17.8v33.9L36,75.4L7,58.4z"/>
	<path class="st26" d="M37,72l26-14.9V25.9l-26-15V72z M7,58.4V42h2v15.1L35,72V6.8l30,17.7v33.8L36,75.4L7,58.4z"/>
	<path class="st24" d="M37,72l26-14.9V25.9l-26-15V72z M7,58.4V42h2v15.1L35,72V6.8l30,17.7v33.8L36,75.3L7,58.4z"/>
	<path class="st22" d="M37,72l26-14.9V25.9l-26-15V72z M7,58.4V42h2v15.1L35,72V6.9l30,17.7v33.8L36,75.3L7,58.4z"/>
	<path class="st20" d="M37,72l26-14.9V25.9l-26-15V72z M7,58.4V42h2v15.1L35,72V6.9l30,17.7v33.8L36,75.3L7,58.4z"/>
	<path class="st18" d="M37,72l26-14.9V25.9l-26-15V72z M7,58.4V42h2v15.1L35,72V6.9l30,17.7v33.8L36,75.3L7,58.4z"/>
	<path class="st16" d="M37,72l26-14.9V25.9l-26-15V72z M7,58.4V42h2v15.1L35,72V6.9l30,17.7v33.8L36,75.3L7,58.4z"/>
	<path class="st13" d="M37,72l26-14.9V25.9L37,10.8V72z M7,58.4V42h2v15.1L35,72V6.9l30,17.7v33.8L36,75.3L7,58.4z"/>
	<path class="st248" d="M37,72.1l26-15V25.9L37,10.8V72.1z M7,58.4V42h2v15.1l26,15V6.9l30,17.7v33.8L36,75.3L7,58.4z"/>
	<path class="st245" d="M37,72.1l26-15V25.9L37,10.8V72.1z M7,58.4V42h2v15.1l26,15V6.9l30,17.7v33.8L36,75.3L7,58.4z"/>
	<path class="st241" d="M37,72.1l26-15V25.9L37,10.8V72.1z M7,58.4V42h2v15.1l26,15V7l30,17.7v33.8L36,75.3L7,58.4z"/>
	<path class="st237" d="M37,72.1l26-15V25.9L37,10.8V72.1z M7,58.4V42h2v15.1l26,15V7l30,17.7v33.8L36,75.3L7,58.4z"/>
	<path class="st234" d="M37,72.1l26-15V25.9L37,10.8V72.1z M7,58.4V42h2v15.1l26,15V7l30,17.6v33.7L36,75.3L7,58.4z"/>
	<path class="st231" d="M37,72.1l26-15V25.9L37,10.8V72.1z M7,58.4V42h2v15.1l26,15V7l30,17.6v33.7L36,75.2L7,58.4z"/>
	<path class="st213" d="M37,72.1l26-15V25.9L37,10.7V72.1z M7,58.4V42h2v15.1l26,15V7l30,17.6v33.7L36,75.2L7,58.4z"/>
	<path class="st210" d="M37,72.2l26-15V25.9L37,10.7V72.2z M7,58.4V42h2v15.1l26,15V7l30,17.6v33.7L36,75.2L7,58.4z"/>
	<path class="st207" d="M37,72.2l26-15V25.9L37,10.7V72.2z M7,58.4V42h2v15.1l26,15V7l30,17.6v33.7L36,75.2L7,58.4z"/>
	<path class="st204" d="M37,72.2l26-15V25.9L37,10.7V72.2z M7,58.4V42h2v15.1l26,15V7l30,17.6v33.7L36,75.2L7,58.4z"/>
	<path class="st202" d="M37,72.2l26-15V25.8L37,10.7V72.2z M7,58.3V42h2v15.2l26,15V7.1l30,17.6v33.7L36,75.2L7,58.3z"/>
	<path class="st200" d="M37,72.2l26-15.1V25.8L37,10.7V72.2z M7,58.3V42h2v15.2l26,15.1V7.1l30,17.6v33.7L36,75.2L7,58.3z"/>
	<path class="st198" d="M37,72.2l26-15.1V25.8L37,10.7V72.2z M7,58.3V42h2v15.2l26,15.1V7.1l30,17.6v33.7L36,75.2L7,58.3z"/>
	<path class="st196" d="M37,72.2l26-15.1V25.8L37,10.6V72.2z M7,58.3V42h2v15.2l26,15.1V7.1l30,17.6v33.7L36,75.2L7,58.3z"/>
	<path class="st195" d="M37,72.3l26-15.1V25.8L37,10.6V72.3z M7,58.3V42h2v15.2l26,15.1V7.1l30,17.6v33.7L36,75.2L7,58.3z"/>
	<path d="M37,10.6v61.6l26-15.1V25.8L37,10.6z M36,75.2L7,58.3V42h2v15.2l26,15.1V7.1l30,17.5v33.6L36,75.2z"/>
</g>
<path class="st80" d="M34.5,7"/>
<path class="st80" d="M6.5,23.3"/>
<polyline class="st42" points="34,72 34,7 34,6.9 62,23.3 62,55.8 34,72 6,55.8 6,40 "/>
</svg>
