<?xml version="1.0" encoding="utf-8"?>
<!-- Generator: Adobe Illustrator 15.0.0, SVG Export Plug-In . SVG Version: 6.00 Build 0)  -->
<!DOCTYPE svg PUBLIC "-//W3C//DTD SVG 1.1//EN" "http://www.w3.org/Graphics/SVG/1.1/DTD/svg11.dtd">
<svg version="1.1" id="LOGO" xmlns="http://www.w3.org/2000/svg" xmlns:xlink="http://www.w3.org/1999/xlink" x="0px" y="0px"
	 width="25px" height="27.6px" viewBox="0 0 25 27.6" style="enable-background:new 0 0 25 27.6;" xml:space="preserve">
<style type="text/css">
<![CDATA[
	.st0{fill:none;stroke:#00C5B4;stroke-miterlimit:10;}
	.st1{fill:#00C5B4;}
]]>
</style>
<polygon class="st0" points="24.5,20.4 12.5,27 0.5,20.4 0.5,7.2 12.5,0.6 24.5,7.2 "/>
<g>
	<path class="st1" d="M12.5,7.4c0.3,0,0.6,0.1,0.8,0.3c0.2,0.2,0.3,0.5,0.3,0.8c0,0.3-0.1,0.6-0.3,0.8c-0.2,0.2-0.5,0.3-0.8,0.3
		s-0.6-0.1-0.8-0.3s-0.3-0.5-0.3-0.8s0.1-0.6,0.3-0.8S12.2,7.4,12.5,7.4z M13.4,20.4h-1.8v-9.1h1.8V20.4z"/>
</g>
</svg>
